<svg xmlns="http://www.w3.org/2000/svg" xmlns:xlink="http://www.w3.org/1999/xlink" width="500" zoomAndPan="magnify" viewBox="0 0 375 374.999991" height="500" preserveAspectRatio="xMidYMid meet" version="1.0"><defs><g/><clipPath id="5a681ace80"><path d="M 35.238281 67.234375 L 339.738281 67.234375 L 339.738281 271 L 35.238281 271 Z M 35.238281 67.234375 " clip-rule="nonzero"/></clipPath><clipPath id="0a4da09b5c"><path d="M 124 260 L 204 260 L 204 340.234375 L 124 340.234375 Z M 124 260 " clip-rule="nonzero"/></clipPath></defs><g clip-path="url(#5a681ace80)"><path fill="#8c52ff" d="M 339.75 206.996094 C 339.75 242.046875 311.332031 270.433594 276.304688 270.433594 L 98.667969 270.433594 C 63.644531 270.433594 35.238281 242.039062 35.238281 206.996094 L 35.238281 130.863281 C 35.238281 95.847656 63.644531 67.445312 98.667969 67.445312 L 276.300781 67.445312 C 311.332031 67.445312 339.726562 95.847656 339.726562 130.863281 L 339.726562 206.996094 Z M 339.75 206.996094 " fill-opacity="1" fill-rule="nonzero"/></g><g clip-path="url(#0a4da09b5c)"><path fill="#8c52ff" d="M 124.058594 261.984375 L 124.058594 340.21875 L 203.339844 260.921875 Z M 124.058594 261.984375 " fill-opacity="1" fill-rule="nonzero"/></g><g fill="#e4e2dd" fill-opacity="1"><g transform="translate(77.01643, 124.808392)"><g><path d="M 57.671875 -1.65625 C 57.671875 -0.550781 54.398438 0 47.859375 0 C 41.328125 0 38.0625 -0.550781 38.0625 -1.65625 L 38.0625 -23.984375 L 24.46875 -23.984375 L 24.46875 -1.65625 C 24.46875 -0.550781 21.195312 0 14.65625 0 C 8.125 0 4.859375 -0.550781 4.859375 -1.65625 L 4.859375 -66.03125 C 4.859375 -67.382812 8.125 -68.0625 14.65625 -68.0625 C 21.195312 -68.0625 24.46875 -67.382812 24.46875 -66.03125 L 24.46875 -43.203125 L 38.0625 -43.203125 L 38.0625 -65.828125 C 38.0625 -66.734375 39.679688 -67.378906 42.921875 -67.765625 C 44.597656 -67.898438 46.25 -67.96875 47.875 -67.96875 L 52.8125 -67.765625 C 56.050781 -67.378906 57.671875 -66.734375 57.671875 -65.828125 Z M 57.671875 -1.65625 "/></g></g></g><g fill="#e4e2dd" fill-opacity="1"><g transform="translate(135.843575, 124.808392)"><g><path d="M 38.640625 -64.765625 C 39.484375 -67.023438 43.628906 -68.15625 51.078125 -68.15625 C 52.953125 -68.15625 55.164062 -68.023438 57.71875 -67.765625 C 60.28125 -67.515625 61.460938 -67.191406 61.265625 -66.796875 L 41.078125 -26.21875 L 41.078125 -2.53125 C 41.078125 -1.425781 39.296875 -0.644531 35.734375 -0.1875 C 33.921875 0.0625 32.140625 0.1875 30.390625 0.1875 C 28.640625 0.1875 26.890625 0.09375 25.140625 -0.09375 C 21.585938 -0.550781 19.8125 -1.363281 19.8125 -2.53125 L 19.8125 -25.625 L -1.0625 -66.609375 C -1.320312 -66.992188 0 -67.363281 2.90625 -67.71875 C 5.820312 -68.070312 8.285156 -68.25 10.296875 -68.25 C 18.253906 -68.25 22.625 -67.085938 23.40625 -64.765625 L 30.484375 -44.953125 Z M 38.640625 -64.765625 "/></g></g></g><g fill="#e4e2dd" fill-opacity="1"><g transform="translate(191.855488, 124.808392)"><g><path d="M 3.890625 -5.734375 L 3.890625 -66.125 C 3.890625 -67.476562 7.171875 -68.15625 13.734375 -68.15625 C 20.304688 -68.15625 23.59375 -67.476562 23.59375 -66.125 L 23.59375 -18.546875 L 38.546875 -18.546875 C 39.710938 -18.546875 40.519531 -17.023438 40.96875 -13.984375 C 41.164062 -12.492188 41.265625 -10.972656 41.265625 -9.421875 C 41.265625 -7.867188 41.164062 -6.28125 40.96875 -4.65625 C 40.457031 -1.550781 39.617188 0 38.453125 0 L 8.546875 0 C 7.117188 0 5.984375 -0.582031 5.140625 -1.75 C 4.304688 -2.914062 3.890625 -4.242188 3.890625 -5.734375 Z M 3.890625 -5.734375 "/></g></g></g><g fill="#e4e2dd" fill-opacity="1"><g transform="translate(230.393635, 124.808392)"><g><path d="M 33.734375 0.96875 C 24.640625 0.96875 17.226562 -2.003906 11.5 -7.953125 C 5.769531 -13.910156 2.90625 -22.601562 2.90625 -34.03125 C 2.90625 -45.457031 5.800781 -54.113281 11.59375 -60 C 17.394531 -65.894531 24.875 -68.84375 34.03125 -68.84375 C 43.1875 -68.84375 50.582031 -65.941406 56.21875 -60.140625 C 61.851562 -54.347656 64.671875 -45.578125 64.671875 -33.828125 C 64.671875 -22.085938 61.785156 -13.351562 56.015625 -7.625 C 50.253906 -1.894531 42.828125 0.96875 33.734375 0.96875 Z M 33.78125 -50.203125 C 30.675781 -50.203125 28.070312 -48.773438 25.96875 -45.921875 C 23.863281 -43.078125 22.8125 -39.082031 22.8125 -33.9375 C 22.8125 -28.789062 23.816406 -24.84375 25.828125 -22.09375 C 27.835938 -19.34375 30.472656 -17.96875 33.734375 -17.96875 C 37.003906 -17.96875 39.660156 -19.359375 41.703125 -22.140625 C 43.742188 -24.921875 44.765625 -28.898438 44.765625 -34.078125 C 44.765625 -39.253906 43.710938 -43.234375 41.609375 -46.015625 C 39.503906 -48.804688 36.894531 -50.203125 33.78125 -50.203125 Z M 33.78125 -50.203125 "/></g></g></g><g fill="#e4e2dd" fill-opacity="1"><g transform="translate(77.01643, 197.727345)"><g><path d="M 57.671875 -1.65625 C 57.671875 -0.550781 54.398438 0 47.859375 0 C 41.328125 0 38.0625 -0.550781 38.0625 -1.65625 L 38.0625 -23.984375 L 24.46875 -23.984375 L 24.46875 -1.65625 C 24.46875 -0.550781 21.195312 0 14.65625 0 C 8.125 0 4.859375 -0.550781 4.859375 -1.65625 L 4.859375 -66.03125 C 4.859375 -67.382812 8.125 -68.0625 14.65625 -68.0625 C 21.195312 -68.0625 24.46875 -67.382812 24.46875 -66.03125 L 24.46875 -43.203125 L 38.0625 -43.203125 L 38.0625 -65.828125 C 38.0625 -66.734375 39.679688 -67.378906 42.921875 -67.765625 C 44.597656 -67.898438 46.25 -67.96875 47.875 -67.96875 L 52.8125 -67.765625 C 56.050781 -67.378906 57.671875 -66.734375 57.671875 -65.828125 Z M 57.671875 -1.65625 "/></g></g></g><g fill="#e4e2dd" fill-opacity="1"><g transform="translate(135.843575, 197.727345)"><g><path d="M 38.640625 -64.765625 C 39.484375 -67.023438 43.628906 -68.15625 51.078125 -68.15625 C 52.953125 -68.15625 55.164062 -68.023438 57.71875 -67.765625 C 60.28125 -67.515625 61.460938 -67.191406 61.265625 -66.796875 L 41.078125 -26.21875 L 41.078125 -2.53125 C 41.078125 -1.425781 39.296875 -0.644531 35.734375 -0.1875 C 33.921875 0.0625 32.140625 0.1875 30.390625 0.1875 C 28.640625 0.1875 26.890625 0.09375 25.140625 -0.09375 C 21.585938 -0.550781 19.8125 -1.363281 19.8125 -2.53125 L 19.8125 -25.625 L -1.0625 -66.609375 C -1.320312 -66.992188 0 -67.363281 2.90625 -67.71875 C 5.820312 -68.070312 8.285156 -68.25 10.296875 -68.25 C 18.253906 -68.25 22.625 -67.085938 23.40625 -64.765625 L 30.484375 -44.953125 Z M 38.640625 -64.765625 "/></g></g></g><g fill="#e4e2dd" fill-opacity="1"><g transform="translate(191.855488, 197.727345)"><g><path d="M 3.890625 -5.734375 L 3.890625 -66.125 C 3.890625 -67.476562 7.171875 -68.15625 13.734375 -68.15625 C 20.304688 -68.15625 23.59375 -67.476562 23.59375 -66.125 L 23.59375 -18.546875 L 38.546875 -18.546875 C 39.710938 -18.546875 40.519531 -17.023438 40.96875 -13.984375 C 41.164062 -12.492188 41.265625 -10.972656 41.265625 -9.421875 C 41.265625 -7.867188 41.164062 -6.28125 40.96875 -4.65625 C 40.457031 -1.550781 39.617188 0 38.453125 0 L 8.546875 0 C 7.117188 0 5.984375 -0.582031 5.140625 -1.75 C 4.304688 -2.914062 3.890625 -4.242188 3.890625 -5.734375 Z M 3.890625 -5.734375 "/></g></g></g><g fill="#e4e2dd" fill-opacity="1"><g transform="translate(230.393635, 197.727345)"><g><path d="M 33.734375 0.96875 C 24.640625 0.96875 17.226562 -2.003906 11.5 -7.953125 C 5.769531 -13.910156 2.90625 -22.601562 2.90625 -34.03125 C 2.90625 -45.457031 5.800781 -54.113281 11.59375 -60 C 17.394531 -65.894531 24.875 -68.84375 34.03125 -68.84375 C 43.1875 -68.84375 50.582031 -65.941406 56.21875 -60.140625 C 61.851562 -54.347656 64.671875 -45.578125 64.671875 -33.828125 C 64.671875 -22.085938 61.785156 -13.351562 56.015625 -7.625 C 50.253906 -1.894531 42.828125 0.96875 33.734375 0.96875 Z M 33.78125 -50.203125 C 30.675781 -50.203125 28.070312 -48.773438 25.96875 -45.921875 C 23.863281 -43.078125 22.8125 -39.082031 22.8125 -33.9375 C 22.8125 -28.789062 23.816406 -24.84375 25.828125 -22.09375 C 27.835938 -19.34375 30.472656 -17.96875 33.734375 -17.96875 C 37.003906 -17.96875 39.660156 -19.359375 41.703125 -22.140625 C 43.742188 -24.921875 44.765625 -28.898438 44.765625 -34.078125 C 44.765625 -39.253906 43.710938 -43.234375 41.609375 -46.015625 C 39.503906 -48.804688 36.894531 -50.203125 33.78125 -50.203125 Z M 33.78125 -50.203125 "/></g></g></g><g fill="#e4e2dd" fill-opacity="1"><g transform="translate(77.01643, 271.10014)"><g><path d="M 57.671875 -1.65625 C 57.671875 -0.550781 54.398438 0 47.859375 0 C 41.328125 0 38.0625 -0.550781 38.0625 -1.65625 L 38.0625 -23.984375 L 24.46875 -23.984375 L 24.46875 -1.65625 C 24.46875 -0.550781 21.195312 0 14.65625 0 C 8.125 0 4.859375 -0.550781 4.859375 -1.65625 L 4.859375 -66.03125 C 4.859375 -67.382812 8.125 -68.0625 14.65625 -68.0625 C 21.195312 -68.0625 24.46875 -67.382812 24.46875 -66.03125 L 24.46875 -43.203125 L 38.0625 -43.203125 L 38.0625 -65.828125 C 38.0625 -66.734375 39.679688 -67.378906 42.921875 -67.765625 C 44.597656 -67.898438 46.25 -67.96875 47.875 -67.96875 L 52.8125 -67.765625 C 56.050781 -67.378906 57.671875 -66.734375 57.671875 -65.828125 Z M 57.671875 -1.65625 "/></g></g></g><g fill="#e4e2dd" fill-opacity="1"><g transform="translate(135.843575, 271.10014)"><g><path d="M 38.640625 -64.765625 C 39.484375 -67.023438 43.628906 -68.15625 51.078125 -68.15625 C 52.953125 -68.15625 55.164062 -68.023438 57.71875 -67.765625 C 60.28125 -67.515625 61.460938 -67.191406 61.265625 -66.796875 L 41.078125 -26.21875 L 41.078125 -2.53125 C 41.078125 -1.425781 39.296875 -0.644531 35.734375 -0.1875 C 33.921875 0.0625 32.140625 0.1875 30.390625 0.1875 C 28.640625 0.1875 26.890625 0.09375 25.140625 -0.09375 C 21.585938 -0.550781 19.8125 -1.363281 19.8125 -2.53125 L 19.8125 -25.625 L -1.0625 -66.609375 C -1.320312 -66.992188 0 -67.363281 2.90625 -67.71875 C 5.820312 -68.070312 8.285156 -68.25 10.296875 -68.25 C 18.253906 -68.25 22.625 -67.085938 23.40625 -64.765625 L 30.484375 -44.953125 Z M 38.640625 -64.765625 "/></g></g></g><g fill="#e4e2dd" fill-opacity="1"><g transform="translate(191.855488, 271.10014)"><g><path d="M 3.890625 -5.734375 L 3.890625 -66.125 C 3.890625 -67.476562 7.171875 -68.15625 13.734375 -68.15625 C 20.304688 -68.15625 23.59375 -67.476562 23.59375 -66.125 L 23.59375 -18.546875 L 38.546875 -18.546875 C 39.710938 -18.546875 40.519531 -17.023438 40.96875 -13.984375 C 41.164062 -12.492188 41.265625 -10.972656 41.265625 -9.421875 C 41.265625 -7.867188 41.164062 -6.28125 40.96875 -4.65625 C 40.457031 -1.550781 39.617188 0 38.453125 0 L 8.546875 0 C 7.117188 0 5.984375 -0.582031 5.140625 -1.75 C 4.304688 -2.914062 3.890625 -4.242188 3.890625 -5.734375 Z M 3.890625 -5.734375 "/></g></g></g><g fill="#e4e2dd" fill-opacity="1"><g transform="translate(230.393635, 271.10014)"><g><path d="M 33.734375 0.96875 C 24.640625 0.96875 17.226562 -2.003906 11.5 -7.953125 C 5.769531 -13.910156 2.90625 -22.601562 2.90625 -34.03125 C 2.90625 -45.457031 5.800781 -54.113281 11.59375 -60 C 17.394531 -65.894531 24.875 -68.84375 34.03125 -68.84375 C 43.1875 -68.84375 50.582031 -65.941406 56.21875 -60.140625 C 61.851562 -54.347656 64.671875 -45.578125 64.671875 -33.828125 C 64.671875 -22.085938 61.785156 -13.351562 56.015625 -7.625 C 50.253906 -1.894531 42.828125 0.96875 33.734375 0.96875 Z M 33.78125 -50.203125 C 30.675781 -50.203125 28.070312 -48.773438 25.96875 -45.921875 C 23.863281 -43.078125 22.8125 -39.082031 22.8125 -33.9375 C 22.8125 -28.789062 23.816406 -24.84375 25.828125 -22.09375 C 27.835938 -19.34375 30.472656 -17.96875 33.734375 -17.96875 C 37.003906 -17.96875 39.660156 -19.359375 41.703125 -22.140625 C 43.742188 -24.921875 44.765625 -28.898438 44.765625 -34.078125 C 44.765625 -39.253906 43.710938 -43.234375 41.609375 -46.015625 C 39.503906 -48.804688 36.894531 -50.203125 33.78125 -50.203125 Z M 33.78125 -50.203125 "/></g></g></g></svg>